<svg xmlns="http://www.w3.org/2000/svg" viewBox="0 0 600 340">
  <defs>
    <linearGradient id="bg" x1="0%" y1="0%" x2="100%" y2="100%">
      <stop offset="0%" style="stop-color:#1a1a2e"/>
      <stop offset="100%" style="stop-color:#16213e"/>
    </linearGradient>
    <linearGradient id="glow" x1="0%" y1="0%" x2="100%" y2="100%">
      <stop offset="0%" style="stop-color:#3b82f6;stop-opacity:0.12"/>
      <stop offset="100%" style="stop-color:#06b6d4;stop-opacity:0.06"/>
    </linearGradient>
  </defs>
  <rect width="600" height="340" fill="url(#bg)" rx="12"/>
  <circle cx="400" cy="100" r="130" fill="url(#glow)"/>
  <!-- Browser mockup -->
  <rect x="175" y="45" width="250" height="120" rx="8" fill="none" stroke="#3b82f6" stroke-width="2" opacity="0.6"/>
  <!-- Browser bar -->
  <rect x="175" y="45" width="250" height="22" rx="8" fill="rgba(59,130,246,0.1)"/>
  <rect x="175" y="58" width="250" height="9" fill="rgba(59,130,246,0.1)"/>
  <circle cx="189" cy="54" r="4" fill="#ef4444" opacity="0.5"/>
  <circle cx="201" cy="54" r="4" fill="#eab308" opacity="0.5"/>
  <circle cx="213" cy="54" r="4" fill="#22c55e" opacity="0.5"/>
  <!-- Search bar -->
  <rect x="190" y="75" width="160" height="18" rx="9" fill="none" stroke="#3b82f6" stroke-width="1.5" opacity="0.5"/>
  <circle cx="200" cy="84" r="4" fill="none" stroke="#3b82f6" stroke-width="1" opacity="0.4"/>
  <line x1="203" y1="87" x2="206" y2="90" stroke="#3b82f6" stroke-width="1" opacity="0.4"/>
  <rect x="210" y="82" width="60" height="3" rx="1.5" fill="#3b82f6" opacity="0.3"/>
  <!-- List items -->
  <rect x="190" y="100" width="220" height="14" rx="3" fill="none" stroke="#06b6d4" stroke-width="1" opacity="0.4"/>
  <circle cx="200" cy="107" r="4" fill="#06b6d4" opacity="0.3"/>
  <rect x="210" y="105" width="80" height="3" rx="1.5" fill="#06b6d4" opacity="0.3"/>
  <rect x="190" y="118" width="220" height="14" rx="3" fill="none" stroke="#06b6d4" stroke-width="1" opacity="0.3"/>
  <circle cx="200" cy="125" r="4" fill="#06b6d4" opacity="0.2"/>
  <rect x="210" y="123" width="70" height="3" rx="1.5" fill="#06b6d4" opacity="0.2"/>
  <rect x="190" y="136" width="220" height="14" rx="3" fill="none" stroke="#06b6d4" stroke-width="1" opacity="0.2"/>
  <circle cx="200" cy="143" r="4" fill="#06b6d4" opacity="0.15"/>
  <rect x="210" y="141" width="90" height="3" rx="1.5" fill="#06b6d4" opacity="0.15"/>
  <!-- React atom icon -->
  <ellipse cx="490" cy="95" rx="30" ry="12" fill="none" stroke="#61dafb" stroke-width="1.5" opacity="0.5" transform="rotate(0 490 95)"/>
  <ellipse cx="490" cy="95" rx="30" ry="12" fill="none" stroke="#61dafb" stroke-width="1.5" opacity="0.5" transform="rotate(60 490 95)"/>
  <ellipse cx="490" cy="95" rx="30" ry="12" fill="none" stroke="#61dafb" stroke-width="1.5" opacity="0.5" transform="rotate(-60 490 95)"/>
  <circle cx="490" cy="95" r="4" fill="#61dafb" opacity="0.8"/>
  <!-- Text -->
  <text x="300" y="210" text-anchor="middle" font-family="system-ui, -apple-system, sans-serif" font-size="22" font-weight="700" fill="#f1f5f9">Searchable User List</text>
  <text x="300" y="240" text-anchor="middle" font-family="system-ui, -apple-system, sans-serif" font-size="14" fill="#94a3b8">React + TypeScript Search Application</text>
  <rect x="170" y="265" width="60" height="24" rx="12" fill="rgba(97,218,251,0.15)" stroke="rgba(97,218,251,0.3)" stroke-width="1"/>
  <text x="200" y="281" text-anchor="middle" font-family="system-ui, sans-serif" font-size="11" fill="#67e8f9">React</text>
  <rect x="240" y="265" width="90" height="24" rx="12" fill="rgba(49,120,198,0.15)" stroke="rgba(49,120,198,0.3)" stroke-width="1"/>
  <text x="285" y="281" text-anchor="middle" font-family="system-ui, sans-serif" font-size="11" fill="#93c5fd">TypeScript</text>
  <rect x="340" y="265" width="100" height="24" rx="12" fill="rgba(99,102,241,0.15)" stroke="rgba(99,102,241,0.3)" stroke-width="1"/>
  <text x="390" y="281" text-anchor="middle" font-family="system-ui, sans-serif" font-size="11" fill="#a5b4fc">API Integration</text>
</svg>
