<svg xmlns="http://www.w3.org/2000/svg" viewBox="0 0 600 340">
  <defs>
    <linearGradient id="bg" x1="0%" y1="0%" x2="100%" y2="100%">
      <stop offset="0%" style="stop-color:#1a1a2e"/>
      <stop offset="100%" style="stop-color:#16213e"/>
    </linearGradient>
    <linearGradient id="glow" x1="0%" y1="0%" x2="100%" y2="100%">
      <stop offset="0%" style="stop-color:#ef4444;stop-opacity:0.1"/>
      <stop offset="100%" style="stop-color:#8b5cf6;stop-opacity:0.06"/>
    </linearGradient>
  </defs>
  <rect width="600" height="340" fill="url(#bg)" rx="12"/>
  <circle cx="300" cy="80" r="130" fill="url(#glow)"/>
  <!-- YouTube play button -->
  <rect x="190" y="55" width="90" height="60" rx="10" fill="none" stroke="#ef4444" stroke-width="2.5" opacity="0.7"/>
  <polygon points="225,72 225,98 250,85" fill="#ef4444" opacity="0.6"/>
  <!-- Arrow -->
  <path d="M290 85 L320 85" stroke="#94a3b8" stroke-width="2" opacity="0.4"/>
  <path d="M315 80 L325 85 L315 90" fill="none" stroke="#94a3b8" stroke-width="2" opacity="0.4"/>
  <!-- Waveform (Whisper) -->
  <line x1="340" y1="85" x2="340" y2="75" stroke="#06b6d4" stroke-width="2.5" opacity="0.6"/>
  <line x1="348" y1="85" x2="348" y2="68" stroke="#06b6d4" stroke-width="2.5" opacity="0.7"/>
  <line x1="356" y1="85" x2="356" y2="72" stroke="#06b6d4" stroke-width="2.5" opacity="0.6"/>
  <line x1="364" y1="85" x2="364" y2="65" stroke="#06b6d4" stroke-width="2.5" opacity="0.7"/>
  <line x1="372" y1="85" x2="372" y2="70" stroke="#06b6d4" stroke-width="2.5" opacity="0.6"/>
  <line x1="340" y1="85" x2="340" y2="95" stroke="#06b6d4" stroke-width="2.5" opacity="0.6"/>
  <line x1="348" y1="85" x2="348" y2="102" stroke="#06b6d4" stroke-width="2.5" opacity="0.7"/>
  <line x1="356" y1="85" x2="356" y2="98" stroke="#06b6d4" stroke-width="2.5" opacity="0.6"/>
  <line x1="364" y1="85" x2="364" y2="105" stroke="#06b6d4" stroke-width="2.5" opacity="0.7"/>
  <line x1="372" y1="85" x2="372" y2="100" stroke="#06b6d4" stroke-width="2.5" opacity="0.6"/>
  <!-- Arrow -->
  <path d="M385 85 L415 85" stroke="#94a3b8" stroke-width="2" opacity="0.4"/>
  <path d="M410 80 L420 85 L410 90" fill="none" stroke="#94a3b8" stroke-width="2" opacity="0.4"/>
  <!-- Summary text block -->
  <rect x="430" y="68" width="70" height="45" rx="6" fill="none" stroke="#8b5cf6" stroke-width="2" opacity="0.6"/>
  <rect x="438" y="78" width="50" height="3" rx="1.5" fill="#8b5cf6" opacity="0.5"/>
  <rect x="438" y="86" width="40" height="3" rx="1.5" fill="#8b5cf6" opacity="0.4"/>
  <rect x="438" y="94" width="45" height="3" rx="1.5" fill="#8b5cf6" opacity="0.3"/>
  <rect x="438" y="102" width="35" height="3" rx="1.5" fill="#8b5cf6" opacity="0.3"/>
  <!-- Labels -->
  <text x="235" y="140" text-anchor="middle" font-family="system-ui, sans-serif" font-size="10" fill="#ef4444" opacity="0.6">Video</text>
  <text x="356" y="140" text-anchor="middle" font-family="system-ui, sans-serif" font-size="10" fill="#06b6d4" opacity="0.6">Whisper</text>
  <text x="465" y="140" text-anchor="middle" font-family="system-ui, sans-serif" font-size="10" fill="#8b5cf6" opacity="0.6">Summary</text>
  <!-- Text -->
  <text x="300" y="200" text-anchor="middle" font-family="system-ui, -apple-system, sans-serif" font-size="22" font-weight="700" fill="#f1f5f9">YouTube Video Summarizer</text>
  <text x="300" y="230" text-anchor="middle" font-family="system-ui, -apple-system, sans-serif" font-size="14" fill="#94a3b8">Whisper + Haystack + Llama 2 Pipeline</text>
  <rect x="155" y="255" width="70" height="24" rx="12" fill="rgba(239,68,68,0.15)" stroke="rgba(239,68,68,0.3)" stroke-width="1"/>
  <text x="190" y="271" text-anchor="middle" font-family="system-ui, sans-serif" font-size="11" fill="#fca5a5">Llama 2</text>
  <rect x="235" y="255" width="80" height="24" rx="12" fill="rgba(6,182,212,0.15)" stroke="rgba(6,182,212,0.3)" stroke-width="1"/>
  <text x="275" y="271" text-anchor="middle" font-family="system-ui, sans-serif" font-size="11" fill="#67e8f9">Haystack</text>
  <rect x="325" y="255" width="70" height="24" rx="12" fill="rgba(6,182,212,0.15)" stroke="rgba(6,182,212,0.3)" stroke-width="1"/>
  <text x="360" y="271" text-anchor="middle" font-family="system-ui, sans-serif" font-size="11" fill="#67e8f9">Whisper</text>
  <rect x="405" y="255" width="80" height="24" rx="12" fill="rgba(139,92,246,0.15)" stroke="rgba(139,92,246,0.3)" stroke-width="1"/>
  <text x="445" y="271" text-anchor="middle" font-family="system-ui, sans-serif" font-size="11" fill="#c4b5fd">Streamlit</text>
</svg>
