<svg xmlns="http://www.w3.org/2000/svg" viewBox="0 0 600 340">
  <defs>
    <linearGradient id="bg" x1="0%" y1="0%" x2="100%" y2="100%">
      <stop offset="0%" style="stop-color:#1a1a2e"/>
      <stop offset="100%" style="stop-color:#16213e"/>
    </linearGradient>
    <linearGradient id="glow" x1="0%" y1="0%" x2="100%" y2="100%">
      <stop offset="0%" style="stop-color:#06b6d4;stop-opacity:0.12"/>
      <stop offset="100%" style="stop-color:#6366f1;stop-opacity:0.06"/>
    </linearGradient>
  </defs>
  <rect width="600" height="340" fill="url(#bg)" rx="12"/>
  <circle cx="300" cy="85" r="130" fill="url(#glow)"/>
  <!-- Neural network visualization -->
  <!-- Input layer -->
  <circle cx="190" cy="60" r="6" fill="none" stroke="#06b6d4" stroke-width="1.5" opacity="0.6"/>
  <circle cx="190" cy="85" r="6" fill="none" stroke="#06b6d4" stroke-width="1.5" opacity="0.6"/>
  <circle cx="190" cy="110" r="6" fill="none" stroke="#06b6d4" stroke-width="1.5" opacity="0.6"/>
  <circle cx="190" cy="135" r="6" fill="none" stroke="#06b6d4" stroke-width="1.5" opacity="0.6"/>
  <!-- Hidden layer 1 -->
  <circle cx="270" cy="50" r="6" fill="none" stroke="#6366f1" stroke-width="1.5" opacity="0.6"/>
  <circle cx="270" cy="75" r="6" fill="none" stroke="#6366f1" stroke-width="1.5" opacity="0.6"/>
  <circle cx="270" cy="100" r="6" fill="none" stroke="#6366f1" stroke-width="1.5" opacity="0.6"/>
  <circle cx="270" cy="125" r="6" fill="none" stroke="#6366f1" stroke-width="1.5" opacity="0.6"/>
  <circle cx="270" cy="145" r="6" fill="none" stroke="#6366f1" stroke-width="1.5" opacity="0.6"/>
  <!-- Hidden layer 2 -->
  <circle cx="340" cy="55" r="6" fill="none" stroke="#8b5cf6" stroke-width="1.5" opacity="0.6"/>
  <circle cx="340" cy="80" r="6" fill="none" stroke="#8b5cf6" stroke-width="1.5" opacity="0.6"/>
  <circle cx="340" cy="105" r="6" fill="none" stroke="#8b5cf6" stroke-width="1.5" opacity="0.6"/>
  <circle cx="340" cy="130" r="6" fill="none" stroke="#8b5cf6" stroke-width="1.5" opacity="0.6"/>
  <!-- Output layer -->
  <circle cx="410" cy="70" r="6" fill="none" stroke="#10b981" stroke-width="1.5" opacity="0.6"/>
  <circle cx="410" cy="95" r="6" fill="none" stroke="#10b981" stroke-width="1.5" opacity="0.6"/>
  <circle cx="410" cy="120" r="6" fill="none" stroke="#10b981" stroke-width="1.5" opacity="0.6"/>
  <!-- Connections (sparse for clarity) -->
  <line x1="196" y1="60" x2="264" y2="50" stroke="#06b6d4" stroke-width="0.5" opacity="0.2"/>
  <line x1="196" y1="60" x2="264" y2="75" stroke="#06b6d4" stroke-width="0.5" opacity="0.2"/>
  <line x1="196" y1="85" x2="264" y2="75" stroke="#06b6d4" stroke-width="0.5" opacity="0.2"/>
  <line x1="196" y1="85" x2="264" y2="100" stroke="#06b6d4" stroke-width="0.5" opacity="0.2"/>
  <line x1="196" y1="110" x2="264" y2="100" stroke="#06b6d4" stroke-width="0.5" opacity="0.2"/>
  <line x1="196" y1="110" x2="264" y2="125" stroke="#06b6d4" stroke-width="0.5" opacity="0.2"/>
  <line x1="196" y1="135" x2="264" y2="125" stroke="#06b6d4" stroke-width="0.5" opacity="0.2"/>
  <line x1="196" y1="135" x2="264" y2="145" stroke="#06b6d4" stroke-width="0.5" opacity="0.2"/>
  <line x1="276" y1="50" x2="334" y2="55" stroke="#6366f1" stroke-width="0.5" opacity="0.2"/>
  <line x1="276" y1="75" x2="334" y2="80" stroke="#6366f1" stroke-width="0.5" opacity="0.2"/>
  <line x1="276" y1="100" x2="334" y2="105" stroke="#6366f1" stroke-width="0.5" opacity="0.2"/>
  <line x1="276" y1="125" x2="334" y2="130" stroke="#6366f1" stroke-width="0.5" opacity="0.2"/>
  <line x1="276" y1="75" x2="334" y2="55" stroke="#6366f1" stroke-width="0.5" opacity="0.15"/>
  <line x1="276" y1="100" x2="334" y2="80" stroke="#6366f1" stroke-width="0.5" opacity="0.15"/>
  <line x1="346" y1="55" x2="404" y2="70" stroke="#8b5cf6" stroke-width="0.5" opacity="0.2"/>
  <line x1="346" y1="80" x2="404" y2="95" stroke="#8b5cf6" stroke-width="0.5" opacity="0.2"/>
  <line x1="346" y1="105" x2="404" y2="95" stroke="#8b5cf6" stroke-width="0.5" opacity="0.2"/>
  <line x1="346" y1="130" x2="404" y2="120" stroke="#8b5cf6" stroke-width="0.5" opacity="0.2"/>
  <!-- LoRA badge -->
  <rect x="440" y="75" width="50" height="22" rx="6" fill="rgba(139,92,246,0.15)" stroke="rgba(139,92,246,0.3)" stroke-width="1"/>
  <text x="465" y="90" text-anchor="middle" font-family="system-ui, sans-serif" font-size="10" fill="#c4b5fd">LoRA</text>
  <!-- Text -->
  <text x="300" y="200" text-anchor="middle" font-family="system-ui, -apple-system, sans-serif" font-size="22" font-weight="700" fill="#f1f5f9">Fine-tuning FLAN-T5 LLM</text>
  <text x="300" y="230" text-anchor="middle" font-family="system-ui, -apple-system, sans-serif" font-size="14" fill="#94a3b8">PEFT + LoRA on Stanford Alpaca Dataset</text>
  <rect x="140" y="255" width="70" height="24" rx="12" fill="rgba(6,182,212,0.15)" stroke="rgba(6,182,212,0.3)" stroke-width="1"/>
  <text x="175" y="271" text-anchor="middle" font-family="system-ui, sans-serif" font-size="11" fill="#67e8f9">FLAN-T5</text>
  <rect x="220" y="255" width="55" height="24" rx="12" fill="rgba(139,92,246,0.15)" stroke="rgba(139,92,246,0.3)" stroke-width="1"/>
  <text x="247" y="271" text-anchor="middle" font-family="system-ui, sans-serif" font-size="11" fill="#c4b5fd">PEFT</text>
  <rect x="285" y="255" width="55" height="24" rx="12" fill="rgba(139,92,246,0.15)" stroke="rgba(139,92,246,0.3)" stroke-width="1"/>
  <text x="312" y="271" text-anchor="middle" font-family="system-ui, sans-serif" font-size="11" fill="#c4b5fd">LoRA</text>
  <rect x="350" y="255" width="105" height="24" rx="12" fill="rgba(99,102,241,0.15)" stroke="rgba(99,102,241,0.3)" stroke-width="1"/>
  <text x="402" y="271" text-anchor="middle" font-family="system-ui, sans-serif" font-size="11" fill="#a5b4fc">Hugging Face</text>
</svg>
