<svg xmlns="http://www.w3.org/2000/svg" viewBox="0 0 600 340">
  <defs>
    <linearGradient id="bg" x1="0%" y1="0%" x2="100%" y2="100%">
      <stop offset="0%" style="stop-color:#1a1a2e"/>
      <stop offset="100%" style="stop-color:#16213e"/>
    </linearGradient>
    <linearGradient id="glow" x1="0%" y1="0%" x2="100%" y2="100%">
      <stop offset="0%" style="stop-color:#6366f1;stop-opacity:0.15"/>
      <stop offset="100%" style="stop-color:#f59e0b;stop-opacity:0.08"/>
    </linearGradient>
  </defs>
  <rect width="600" height="340" fill="url(#bg)" rx="12"/>
  <circle cx="480" cy="70" r="110" fill="url(#glow)"/>
  <circle cx="100" cy="280" r="100" fill="url(#glow)"/>
  <!-- Invoice document -->
  <rect x="155" y="55" width="100" height="130" rx="6" fill="none" stroke="#6366f1" stroke-width="2" opacity="0.75"/>
  <rect x="165" y="68" width="80" height="8" rx="2" fill="#6366f1" opacity="0.5"/>
  <rect x="165" y="82" width="55" height="4" rx="2" fill="#6366f1" opacity="0.35"/>
  <rect x="165" y="92" width="70" height="4" rx="2" fill="#6366f1" opacity="0.3"/>
  <rect x="165" y="105" width="80" height="1" fill="#6366f1" opacity="0.2"/>
  <rect x="165" y="112" width="40" height="4" rx="2" fill="#f59e0b" opacity="0.5"/>
  <rect x="215" y="112" width="30" height="4" rx="2" fill="#f59e0b" opacity="0.4"/>
  <rect x="165" y="122" width="40" height="4" rx="2" fill="#f59e0b" opacity="0.4"/>
  <rect x="215" y="122" width="30" height="4" rx="2" fill="#f59e0b" opacity="0.35"/>
  <rect x="165" y="132" width="40" height="4" rx="2" fill="#f59e0b" opacity="0.35"/>
  <rect x="215" y="132" width="30" height="4" rx="2" fill="#f59e0b" opacity="0.3"/>
  <!-- Globe/language icon -->
  <circle cx="210" cy="62" r="6" fill="none" stroke="#f59e0b" stroke-width="1.5" opacity="0.7"/>
  <text x="167" y="152" font-family="system-ui, sans-serif" font-size="8" fill="#a5b4fc" opacity="0.6">EN · ES · FR · DE</text>
  <!-- Arrow -->
  <path d="M270 120 L310 120" stroke="#06b6d4" stroke-width="2.5" opacity="0.7"/>
  <path d="M305 114 L315 120 L305 126" fill="none" stroke="#06b6d4" stroke-width="2.5" opacity="0.7"/>
  <!-- Gemini Vision icon -->
  <circle cx="365" cy="120" r="38" fill="none" stroke="#8b5cf6" stroke-width="2" opacity="0.7"/>
  <text x="365" y="112" text-anchor="middle" font-family="system-ui, sans-serif" font-size="10" fill="#c4b5fd" font-weight="600">Gemini</text>
  <text x="365" y="126" text-anchor="middle" font-family="system-ui, sans-serif" font-size="10" fill="#8b5cf6">Vision Pro</text>
  <!-- Eye icon inside circle -->
  <ellipse cx="365" cy="138" rx="10" ry="6" fill="none" stroke="#8b5cf6" stroke-width="1.5" opacity="0.5"/>
  <circle cx="365" cy="138" r="3" fill="#8b5cf6" opacity="0.5"/>
  <!-- Output -->
  <rect x="430" y="90" width="90" height="60" rx="6" fill="none" stroke="#10b981" stroke-width="1.5" opacity="0.7"/>
  <text x="475" y="112" text-anchor="middle" font-family="system-ui, sans-serif" font-size="9" fill="#6ee7b7" font-weight="600">Extracted</text>
  <rect x="440" y="118" width="60" height="4" rx="2" fill="#10b981" opacity="0.4"/>
  <rect x="440" y="127" width="45" height="4" rx="2" fill="#10b981" opacity="0.3"/>
  <rect x="440" y="136" width="55" height="4" rx="2" fill="#10b981" opacity="0.3"/>
  <!-- Arrow 2 -->
  <path d="M403" y1="120" x2="430" y2="120"/>
  <line x1="403" y1="120" x2="430" y2="120" stroke="#10b981" stroke-width="1.5" opacity="0.5" stroke-dasharray="3,3"/>
  <!-- Title -->
  <text x="300" y="215" text-anchor="middle" font-family="system-ui, -apple-system, sans-serif" font-size="19" font-weight="700" fill="#f1f5f9">Multilanguage Invoice Extractor</text>
  <text x="300" y="242" text-anchor="middle" font-family="system-ui, -apple-system, sans-serif" font-size="13" fill="#94a3b8">Gemini Vision Pro · Multimodal AI</text>
  <!-- Tech pills -->
  <rect x="110" y="265" width="110" height="24" rx="12" fill="rgba(139,92,246,0.15)" stroke="rgba(139,92,246,0.3)" stroke-width="1"/>
  <text x="165" y="281" text-anchor="middle" font-family="system-ui, sans-serif" font-size="11" fill="#c4b5fd">Gemini Vision Pro</text>
  <rect x="230" y="265" width="75" height="24" rx="12" fill="rgba(99,102,241,0.15)" stroke="rgba(99,102,241,0.3)" stroke-width="1"/>
  <text x="267" y="281" text-anchor="middle" font-family="system-ui, sans-serif" font-size="11" fill="#a5b4fc">Streamlit</text>
  <rect x="315" y="265" width="80" height="24" rx="12" fill="rgba(245,158,11,0.12)" stroke="rgba(245,158,11,0.3)" stroke-width="1"/>
  <text x="355" y="281" text-anchor="middle" font-family="system-ui, sans-serif" font-size="11" fill="#fcd34d">Multimodal</text>
  <rect x="405" y="265" width="60" height="24" rx="12" fill="rgba(99,102,241,0.15)" stroke="rgba(99,102,241,0.3)" stroke-width="1"/>
  <text x="435" y="281" text-anchor="middle" font-family="system-ui, sans-serif" font-size="11" fill="#a5b4fc">Python</text>
</svg>
