<svg xmlns="http://www.w3.org/2000/svg" viewBox="0 0 600 340">
  <defs>
    <linearGradient id="bg" x1="0%" y1="0%" x2="100%" y2="100%">
      <stop offset="0%" style="stop-color:#1a1a2e"/>
      <stop offset="100%" style="stop-color:#16213e"/>
    </linearGradient>
    <linearGradient id="glow" x1="0%" y1="0%" x2="100%" y2="100%">
      <stop offset="0%" style="stop-color:#6366f1;stop-opacity:0.12"/>
      <stop offset="100%" style="stop-color:#10b981;stop-opacity:0.06"/>
    </linearGradient>
  </defs>
  <rect width="600" height="340" fill="url(#bg)" rx="12"/>
  <circle cx="450" cy="80" r="120" fill="url(#glow)"/>
  <!-- Resume doc -->
  <rect x="190" y="55" width="70" height="90" rx="5" fill="none" stroke="#6366f1" stroke-width="2" opacity="0.7"/>
  <rect x="200" y="68" width="45" height="3" rx="1.5" fill="#6366f1" opacity="0.5"/>
  <rect x="200" y="78" width="50" height="3" rx="1.5" fill="#6366f1" opacity="0.4"/>
  <rect x="200" y="88" width="38" height="3" rx="1.5" fill="#6366f1" opacity="0.3"/>
  <rect x="200" y="98" width="45" height="3" rx="1.5" fill="#6366f1" opacity="0.3"/>
  <rect x="200" y="108" width="40" height="3" rx="1.5" fill="#6366f1" opacity="0.25"/>
  <rect x="200" y="118" width="50" height="3" rx="1.5" fill="#6366f1" opacity="0.2"/>
  <rect x="200" y="128" width="35" height="3" rx="1.5" fill="#6366f1" opacity="0.2"/>
  <!-- VS arrows -->
  <text x="300" y="105" text-anchor="middle" font-family="system-ui, sans-serif" font-size="16" font-weight="700" fill="#94a3b8" opacity="0.5">VS</text>
  <!-- Job desc doc -->
  <rect x="340" y="55" width="70" height="90" rx="5" fill="none" stroke="#8b5cf6" stroke-width="2" opacity="0.7"/>
  <rect x="350" y="68" width="45" height="3" rx="1.5" fill="#8b5cf6" opacity="0.5"/>
  <rect x="350" y="78" width="50" height="3" rx="1.5" fill="#8b5cf6" opacity="0.4"/>
  <rect x="350" y="88" width="38" height="3" rx="1.5" fill="#8b5cf6" opacity="0.3"/>
  <rect x="350" y="98" width="45" height="3" rx="1.5" fill="#8b5cf6" opacity="0.3"/>
  <rect x="350" y="108" width="42" height="3" rx="1.5" fill="#8b5cf6" opacity="0.25"/>
  <rect x="350" y="118" width="48" height="3" rx="1.5" fill="#8b5cf6" opacity="0.2"/>
  <!-- Checkmark -->
  <circle cx="300" cy="148" r="14" fill="none" stroke="#10b981" stroke-width="2" opacity="0.6"/>
  <path d="M292 148 L298 154 L310 142" fill="none" stroke="#10b981" stroke-width="2.5" opacity="0.7"/>
  <!-- Text -->
  <text x="300" y="210" text-anchor="middle" font-family="system-ui, -apple-system, sans-serif" font-size="22" font-weight="700" fill="#f1f5f9">Smart ATS Checker</text>
  <text x="300" y="240" text-anchor="middle" font-family="system-ui, -apple-system, sans-serif" font-size="14" fill="#94a3b8">Resume-JD Match Analysis with Gemini LLM</text>
  <rect x="175" y="260" width="70" height="24" rx="12" fill="rgba(99,102,241,0.15)" stroke="rgba(99,102,241,0.3)" stroke-width="1"/>
  <text x="210" y="276" text-anchor="middle" font-family="system-ui, sans-serif" font-size="11" fill="#a5b4fc">Gemini</text>
  <rect x="255" y="260" width="80" height="24" rx="12" fill="rgba(139,92,246,0.15)" stroke="rgba(139,92,246,0.3)" stroke-width="1"/>
  <text x="295" y="276" text-anchor="middle" font-family="system-ui, sans-serif" font-size="11" fill="#c4b5fd">Streamlit</text>
  <rect x="345" y="260" width="55" height="24" rx="12" fill="rgba(6,182,212,0.15)" stroke="rgba(6,182,212,0.3)" stroke-width="1"/>
  <text x="372" y="276" text-anchor="middle" font-family="system-ui, sans-serif" font-size="11" fill="#67e8f9">NLP</text>
</svg>
